<svg width="256" height="256" viewBox="0 0 256 256" fill="none" xmlns="http://www.w3.org/2000/svg">
<path d="M154.026 29.0225C165.191 30.3695 174.743 33.2755 184.314 38.2385L192.129 42.2905L177.306 57.3955C169.154 65.7035 157.427 78.6885 151.246 86.2505L140.008 100.001H131.185C120.569 100.001 114.388 101.732 107.04 106.763C95.5402 114.636 89.5352 125.494 88.1042 141.003C87.1222 151.645 84.6752 156.915 77.3632 164.136C74.4132 167.049 72.0002 169.786 72.0002 170.217C72.0002 171.34 113.357 171.177 120.387 170.025C134.022 167.792 146.021 158.796 152.258 146.129C155.261 140.031 155.526 138.67 155.858 127.68L156.216 115.814L169.858 104.666C177.361 98.5335 190.273 86.8705 198.552 78.7475L213.603 63.9785L217.716 71.7395C230.26 95.4105 230.464 121.914 218.23 138.579C216.583 140.823 208.995 148.433 201.368 155.492C193.741 162.551 186.953 169.266 186.285 170.414C185.617 171.562 185.048 174.976 185.021 178.001C184.816 200.394 170.822 219.168 149.5 225.652C141.104 228.206 113.182 228.202 101.069 225.646C72.7202 219.663 50.9462 202.727 37.6592 176.322C24.6852 150.54 25.3022 111.332 39.1162 83.6475C44.6992 72.4605 50.3492 64.8365 59.6292 55.9745C72.1542 44.0125 85.2182 36.6775 102.39 31.9665C115.666 28.3245 137.784 27.0635 154.026 29.0225Z" fill="white"/>
</svg>
