<svg width="256" height="256" viewBox="0 0 256 256" fill="none" xmlns="http://www.w3.org/2000/svg">
<path d="M53.6671 136.94C50.8226 129.32 48.4937 121.452 46.6307 113.4C44.4848 104.203 42.9544 94.7406 41.973 85.1286C41.2577 78.04 40.0766 64.8422 41.4906 52.8895C43.0376 39.974 47.5955 28.4529 58.8238 26.3113C77.987 22.6591 87.0196 51.9931 92.4258 69.4905C93.2742 72.2629 94.0394 74.7198 94.7048 76.5957C96.5179 81.742 98.3311 86.6891 100.211 91.4868C101.608 95.056 103.022 98.4924 104.453 101.796C104.885 101.53 105.318 101.298 105.767 101.049C108.911 99.3889 112.321 98.3596 115.864 97.8782C122.917 96.9153 129.887 97.928 136.441 100.285C143.71 102.892 150.464 107.175 156.27 112.255C158.748 114.429 162.341 117.899 165.236 121.535C167.415 124.274 169.228 127.146 169.96 129.769C170.309 131.014 170.509 132.275 170.525 133.52C170.559 134.815 170.409 136.044 170.093 137.189C169.627 138.883 168.812 140.427 167.664 141.738C166.566 142.983 165.152 144.012 163.456 144.726C157.733 147.133 151.479 144.079 145.141 141.008C142.23 139.596 139.302 138.169 136.707 137.438C132.366 136.226 128.057 135.579 123.832 135.463C129.654 142.767 136.325 149.192 144.309 154.986C154.09 162.041 165.801 168.15 180.29 173.745C182.303 174.525 184.499 175.338 186.844 176.168C189.123 176.982 191.435 177.762 193.814 178.542H193.831C195.045 178.941 196.01 179.24 196.991 179.555C207.837 182.942 221.993 187.357 220.945 200.572C220.562 205.336 218.716 210.582 214.507 215.297C211.164 219.032 206.34 222.402 199.586 224.843C199.486 224.876 199.387 224.909 199.287 224.942C187.509 227.93 175.982 229.009 164.72 228.196C153.442 227.399 142.446 224.71 131.717 220.227C118.975 214.899 107.78 208.142 97.9818 200.24C91.3446 194.894 85.3727 189.018 79.9997 182.693C81.1475 188.304 82.8775 193.815 84.4911 198.862C87.319 207.793 89.7476 215.48 88.3836 221.257C88.3171 221.539 88.2173 221.871 88.1008 222.22C86.8033 226.054 83.6926 228.279 80.0829 229.325C76.9722 230.221 73.3958 230.171 70.518 229.491C70.0522 229.375 69.5532 229.242 69.0541 229.059C65.7605 227.947 62.6665 226.453 59.772 224.643C49.2423 218.036 41.7733 207.279 37.9474 195.26C34.138 183.307 33.9218 170.076 37.8808 158.439C39.0785 154.903 40.6921 151.499 42.6882 148.312C45.5827 143.68 49.2589 139.796 53.6671 136.94Z" fill="white"/>
</svg>
